<svg width="40" height="26" viewBox="0 0 40 26" fill="none" xmlns="http://www.w3.org/2000/svg">
<path d="M38.557 7.40001L28.602 1.36667C28.5443 1.33071 28.4796 1.3075 28.4122 1.29859C28.3449 1.28968 28.2764 1.29528 28.2113 1.31501C28.1463 1.33474 28.0863 1.36814 28.0352 1.41298C27.9841 1.45783 27.9433 1.51307 27.9153 1.57501L25.582 7.05167L30.3186 9.87834C30.4541 9.95552 30.5667 10.0672 30.6451 10.202C30.7234 10.3368 30.7647 10.4899 30.7647 10.6458C30.7647 10.8018 30.7234 10.9549 30.6451 11.0897C30.5667 11.2245 30.4541 11.3362 30.3186 11.4133L21.427 16.6467L17.6486 25.4367C17.626 25.4625 17.6099 25.4935 17.6019 25.527C17.594 25.5605 17.5942 25.5954 17.6028 25.6287C17.6113 25.662 17.6278 25.6927 17.6509 25.7182C17.674 25.7437 17.703 25.7632 17.7353 25.775C17.774 25.7891 17.8162 25.791 17.856 25.7806C17.8959 25.7702 17.9317 25.7479 17.9586 25.7167L24.482 21.775L27.057 25.4733C27.1133 25.5585 27.1898 25.6284 27.2796 25.6769C27.3695 25.7255 27.4699 25.7511 27.572 25.7517H33.752C33.8647 25.7517 33.9753 25.7206 34.0714 25.6618C34.1676 25.603 34.2457 25.5187 34.297 25.4183C34.3496 25.3181 34.3746 25.2057 34.3693 25.0926C34.364 24.9795 34.3287 24.8699 34.267 24.775L30.0786 18.355L38.5586 13.2267C39.5203 12.645 40.0003 11.9933 40.0003 11.2733V9.355C40.0003 8.63334 39.5203 7.98334 38.557 7.40167V7.40001ZM21.8036 0.250006L1.40862 13.0867C0.446958 13.6667 -0.0213754 14.3183 0.000291255 15.0383V16.9933C0.0236246 17.7133 0.505291 18.3533 1.44362 18.91L11.537 24.7367C11.5968 24.7717 11.6636 24.7932 11.7327 24.7998C11.8018 24.8063 11.8714 24.7977 11.9368 24.7745C12.0022 24.7513 12.0617 24.7142 12.1113 24.6656C12.1608 24.617 12.1992 24.5582 12.2236 24.4933L14.4903 19.0167L9.68362 16.295C9.56197 16.2323 9.45696 16.1416 9.37727 16.0303C9.29758 15.919 9.24549 15.7904 9.22529 15.655C9.19815 15.4806 9.22399 15.302 9.29947 15.1425C9.37494 14.9829 9.49658 14.8497 9.64862 14.76L18.4736 9.35167L22.112 0.491673C22.1266 0.450166 22.1281 0.405141 22.1161 0.362769C22.1042 0.320398 22.0795 0.282757 22.0453 0.255007C22.0111 0.227546 21.9689 0.211895 21.925 0.210393C21.8812 0.208891 21.838 0.221618 21.802 0.246673L21.8036 0.250006Z" fill="white"/>
</svg>
